<?xml version="1.0" encoding="UTF-8" standalone="no"?>
<!-- Created with Inkscape (http://www.inkscape.org/) -->

<svg
   width="175.06293mm"
   height="175.06293mm"
   viewBox="0 0 175.06293 175.06293"
   version="1.1"
   id="svg1"
   xml:space="preserve"
   inkscape:version="1.4.4 (dcaf3e7, 2026-05-05)"
   sodipodi:docname="icon.svg"
   xmlns:inkscape="http://www.inkscape.org/namespaces/inkscape"
   xmlns:sodipodi="http://sodipodi.sourceforge.net/DTD/sodipodi-0.dtd"
   xmlns="http://www.w3.org/2000/svg"
   xmlns:svg="http://www.w3.org/2000/svg"><sodipodi:namedview
     id="namedview1"
     pagecolor="#ffffff"
     bordercolor="#666666"
     borderopacity="1.0"
     inkscape:showpageshadow="2"
     inkscape:pageopacity="0.0"
     inkscape:pagecheckerboard="0"
     inkscape:deskcolor="#d1d1d1"
     inkscape:document-units="mm"
     showguides="true"
     inkscape:zoom="0.65290811"
     inkscape:cx="379.83906"
     inkscape:cy="353.8017"
     inkscape:window-width="1728"
     inkscape:window-height="985"
     inkscape:window-x="1271"
     inkscape:window-y="1233"
     inkscape:window-maximized="1"
     inkscape:current-layer="layer1"><sodipodi:guide
       position="93.459142,282.37545"
       orientation="0,-1"
       id="guide1"
       inkscape:locked="false" /><sodipodi:guide
       position="29.549359,255.42554"
       orientation="0.81408532,-0.58074529"
       id="guide7"
       inkscape:locked="false"
       inkscape:label=""
       inkscape:color="rgb(0,134,229)" /><sodipodi:guide
       position="87.684162,274.89651"
       orientation="1,0"
       id="guide8"
       inkscape:locked="false" /></sodipodi:namedview><defs
     id="defs1"><inkscape:perspective
       sodipodi:type="inkscape:persp3d"
       inkscape:vp_x="0 : -99.331075 : 1"
       inkscape:vp_y="0 : 1000 : 0"
       inkscape:vp_z="67.733331 : -99.331075 : 1"
       inkscape:persp3d-origin="33.866666 : -106.86641 : 1"
       id="perspective4791" /></defs><g
     inkscape:label="Layer 1"
     inkscape:groupmode="layer"
     id="layer1"
     transform="translate(-23.909058,-49.439064)"><path
       fill="#ffffff"
       d="m 373.28791,217.19005 c -42.13078,-8.86963 -84.26156,-53.21783 -84.26156,-106.43566 0,-22.174087 8.86964,-44.348184 22.1741,-62.087461 h 124.17493 c 13.30446,17.739277 22.1741,39.913374 22.1741,62.087461 0,53.21783 -42.13079,97.56603 -84.26157,106.43566 z"
       id="path1"
       style="fill:#005eb8;stroke-width:8.86964" /><path
       stroke-width="10.01"
       d="m 294.52406,153.505 a 75.074745,75.074745 0 1 0 0.76999,0 z"
       id="path1-8"
       style="fill:none;stroke:#000000" /><path
       style="fill:none;stroke:#ffffff;stroke-width:7;stroke-dasharray:none"
       d="m 117.3682,211.13312 c 45.53043,-38.45153 45.53043,-108.61797 0,-147.069501"
       id="path7" /><path
       style="fill:none;stroke:#ffffff;stroke-width:7;stroke-dasharray:none"
       d="m 105.81824,64.063619 c -45.530428,38.451531 -45.530428,108.617971 0,147.069501"
       id="path6" /><path
       style="fill:none;stroke:#ffffff;stroke-width:7;stroke-dasharray:none"
       d="m 169.72801,183.41321 c -34.78421,-24.8156 -81.485387,-24.8156 -116.269593,0"
       id="path5" /><path
       style="fill:none;stroke:#ffffff;stroke-width:7;stroke-dasharray:none"
       d="M 180.8781,137.21337 H 42.308335"
       id="path3" /><path
       style="fill:none;stroke:#ffffff;stroke-width:7;stroke-dasharray:none"
       d="M 111.59322,62.138621 V 212.28811"
       id="path2" /><path
       sodipodi:nodetypes="cccccc"
       inkscape:connector-curvature="0"
       id="path1227"
       d="m 185.3108,64.268567 c 0,0 -3.6201,71.169823 -6.07249,90.785073 -2.45237,19.61526 -21.66278,55.93979 -67.64509,57.02951 C 65.610892,210.99343 46.400488,174.6689 43.948125,155.05364 41.495729,135.43839 37.875631,64.268567 37.875631,64.268567 Z"
       style="fill:none;stroke:#ffffff;stroke-width:7;stroke-linecap:butt;stroke-linejoin:miter;stroke-miterlimit:4;stroke-dasharray:none;stroke-opacity:1"
       inkscape:transform-center-x="6.2368794e-06"
       inkscape:transform-center-y="-73.907295" /><path
       id="path8"
       style="fill:none;stroke:#ffffff;stroke-width:7;stroke-dasharray:none"
       inkscape:transform-center-x="-15.980588"
       inkscape:transform-center-y="84.309463"
       d="m 70.567736,100.83138 c 38.975234,17.51246 84.769574,8.3547 114.012144,-22.800196 m -145.97333,3e-6 c 29.242566,31.154893 75.03701,40.312893 114.01215,22.800193" /></g></svg>
